<svg xmlns="http://www.w3.org/2000/svg" width="187.282" height="29.94" viewBox="0 0 187.282 29.94"><g transform="translate(-573.915 -775.036)"><path d="M6962.651,786.236a7.184,7.184,0,0,1,6.272-2.589,6.287,6.287,0,0,1,5.663,3.421c2.907-3.18,6.661-4.226,10.145-2.766a7.38,7.38,0,0,1,4.9,6.868c.131,3.518.057,7.045.042,10.568a2.319,2.319,0,0,1-2.272,2.46,2.344,2.344,0,0,1-2.2-2.532c-.01-2.947.006-5.893,0-8.839-.012-3.372-2.186-5.216-5.523-4.73a3.613,3.613,0,0,0-3.054,2.655,12.868,12.868,0,0,0-.5,4.05c-.035,2.247,0,4.495-.012,6.743-.007,1.6-.925,2.667-2.259,2.653-1.311-.015-2.211-1.1-2.213-2.7,0-2.855,0-5.71-.007-8.565a9.369,9.369,0,0,0-.124-1.538,3.893,3.893,0,0,0-3.644-3.594,4.392,4.392,0,0,0-4.616,2.727,7.354,7.354,0,0,0-.6,2.743c-.025,2.7-.032,5.406-.046,8.109a2.68,2.68,0,0,1-1.035,2.4,1.972,1.972,0,0,1-2.16.2,2.343,2.343,0,0,1-1.338-2.215q0-5.012,0-10.023c0-1.64,0-3.281,0-4.921a2.45,2.45,0,0,1,1.915-2.709C6961.146,783.933,6962.065,784.622,6962.651,786.236Z" transform="translate(-6291)" fill="#fff"/><path d="M6948.145,802.359c-2.427,2.464-5.457,2.41-8.517,1.8a6.879,6.879,0,0,1-5.554-6.331c-.3-3.757-.125-7.527-.11-11.29a2.273,2.273,0,0,1,2.38-2.449,2.366,2.366,0,0,1,2.123,2.6c.007,2.885,0,5.769.006,8.654a8.424,8.424,0,0,0,.087,1.36c.446,2.668,1.857,3.836,4.581,3.8,1.876-.027,3.591-.4,4.621-2.2a3.488,3.488,0,0,0,.487-1.815c-.023-3.127-.009-6.255,0-9.383a6.4,6.4,0,0,1,.055-.907,2.251,2.251,0,0,1,2.414-2.108,2.315,2.315,0,0,1,2.061,2.381c.019,2.308.006,4.616.006,6.924q0,4.145,0,8.289a2.2,2.2,0,0,1-1.787,2.482,2.309,2.309,0,0,1-2.681-1.654C6948.293,802.464,6948.231,802.435,6948.145,802.359Z" transform="translate(-6291)" fill="#fff"/><path d="M7019.859,788.29c0-3.615-.008-7.229.007-10.844a2.231,2.231,0,0,1,1.571-2.225,2.139,2.139,0,0,1,2.321.683,2.7,2.7,0,0,1,.568,1.959q-.014,9.567-.005,19.136c0,2.77.439,3.2,3.244,3.21a2.023,2.023,0,0,1,2.064,2.612,1.64,1.64,0,0,1-.87,1.009,6.361,6.361,0,0,1-8.689-3.443,6.1,6.1,0,0,1-.211-1.891Q7019.856,793.393,7019.859,788.29Z" transform="translate(-6291)" fill="#fff"/><path d="M6898.517,788.486q-3.486-5.885-6.879-11.823a2.907,2.907,0,0,0-2.814-1.62c-4.461.034-8.922.049-13.382-.007a3.278,3.278,0,0,0-3.243,1.852c-2.372,4.2-4.849,8.348-7.284,12.515v1.275c.046.036.11.062.137.108,2.455,4.232,4.921,8.459,7.349,12.707a2.688,2.688,0,0,0,2.6,1.482q7.012-.052,14.025,0a2.633,2.633,0,0,0,2.526-1.452q3.454-6.008,6.979-11.975A2.714,2.714,0,0,0,6898.517,788.486Zm-20.493-6.676q3.978-.066,7.96,0a1.9,1.9,0,0,1,2.012,1.919,1.945,1.945,0,0,1-2.092,1.837c-1.341.019-2.683,0-4.025.005-1.251,0-2.5.011-3.752,0a1.951,1.951,0,0,1-2.152-1.872A1.9,1.9,0,0,1,6878.024,781.81Zm6.413,16.393a25.691,25.691,0,0,1-4.929,0,1.727,1.727,0,0,1-1.616-1.947,1.808,1.808,0,0,1,1.86-1.743c.061,0,.122,0,.183,0h2.013v0c.763,0,1.527-.025,2.288.006a1.87,1.87,0,0,1,1.871,1.759A1.8,1.8,0,0,1,6884.437,798.2Zm4.861-6.284c-2.442.026-4.884.007-7.327.008-2.412,0-4.824.02-7.235-.008-1.622-.019-2.588-1.386-1.936-2.684a1.934,1.934,0,0,1,1.866-1.087c4.884,0,9.769-.013,14.654.006a1.872,1.872,0,0,1,2.022,1.889A1.893,1.893,0,0,1,6889.3,791.919Z" transform="translate(-6291)" fill="#fff"/><path d="M7015.854,791.842a9.782,9.782,0,0,0-12.243-7.9,9.291,9.291,0,0,0-4.1,2.567v-1.077c0-2.612.017-5.224-.007-7.836a2.4,2.4,0,0,0-2.267-2.505,2.377,2.377,0,0,0-2.27,2.4q-.024,12.07,0,24.142a2.178,2.178,0,0,0,2.3,2.193c1.156-.015,1.817-.617,2.354-2.167a3.3,3.3,0,0,1,.282.234c3.481,3.643,9.612,3.194,12.9-.029C7015.666,799.075,7016.455,795.664,7015.854,791.842Zm-9.891,8.294c-3.873.054-6.418-2.271-6.445-5.887-.029-3.762,2.389-6.063,6.413-6.1a5.995,5.995,0,1,1,.032,11.989Z" transform="translate(-6291)" fill="#fff"/><path d="M6930,792.035a9.393,9.393,0,0,0-6.233-7.8,8.942,8.942,0,0,0-9.629,1.781c-.121.108-.218.318-.49.15v-.971c0-2.521.025-5.042-.012-7.562a2.272,2.272,0,1,0-4.521-.07q-.014,12.027,0,24.053a2.129,2.129,0,0,0,1.632,2.153,2.311,2.311,0,0,0,2.6-1.064,7.954,7.954,0,0,0,.391-1.049,3.114,3.114,0,0,1,.305.243c3.146,3.336,8.612,3.289,11.981.725C6929.553,799.938,6930.683,796.265,6930,792.035Zm-10.026,8.1c-3.88-.022-6.324-2.343-6.321-6,0-3.719,2.482-6,6.519-5.989a5.734,5.734,0,0,1,5.852,5.815C6926.03,797.678,6923.6,800.158,6919.976,800.137Z" transform="translate(-6291)" fill="#fff"/><path d="M7037.214,795.6c2.229.046,4.46.017,6.69.017,2.292,0,4.583.005,6.875,0,.922,0,1.366-.389,1.4-1.3a12.241,12.241,0,0,0-1.557-6.828c-3.116-5.348-11.334-4.993-14.862-2.127-3.6,2.927-5.013,9.224-2.948,13.483,2.705,5.576,11.355,7.594,16.32,3.8a5.1,5.1,0,0,0,1.769-2.166,1.918,1.918,0,0,0-.428-2.263,2.023,2.023,0,0,0-2.291-.4,2.378,2.378,0,0,0-1.085.809,3.839,3.839,0,0,1-2.936,1.617,15.216,15.216,0,0,1-3.653-.112,4.474,4.474,0,0,1-3.972-3.629C7036.364,795.817,7036.448,795.59,7037.214,795.6Zm-.662-4.33a5.035,5.035,0,0,1,4.506-3.692,12.427,12.427,0,0,1,2.651,0,4.755,4.755,0,0,1,4.18,3.666c.141.551-.021.736-.558.678-.029,0-.06,0-.091,0H7042.2c-1.709,0-3.419-.018-5.128.01C7036.531,791.946,7036.4,791.823,7036.552,791.275Z" transform="translate(-6291)" fill="#fff"/></g></svg>