<svg xmlns="http://www.w3.org/2000/svg" width="188.318" height="33.313" viewBox="0 0 188.318 33.313"><g transform="translate(-856.601 -778.807)"><path d="M7298.624,778.807c.093.8.194,1.6.277,2.406q.435,4.2.858,8.406c.005.047,0,.1,0,.174h-2.123c-.234-.738-.443-1.491-.71-2.223a8.371,8.371,0,0,0-2.719-4.022,8.219,8.219,0,0,0-4.3-1.761,4.738,4.738,0,0,0-3.532,1.065,3.511,3.511,0,0,0-.872,4.067,4.94,4.94,0,0,0,.9,1.411,12.99,12.99,0,0,0,2.835,2.265c2.252,1.416,4.509,2.823,6.722,4.3a13.746,13.746,0,0,1,3.136,3.028,8.581,8.581,0,0,1-1.719,12.009,11.425,11.425,0,0,1-7.767,2.155,19.753,19.753,0,0,1-5.408-1.329,7.64,7.64,0,0,0-.813-.233.665.665,0,0,0-.9.46c-.129.326-.2.674-.317,1.069-.562,0-1.158.009-1.754-.011-.067,0-.174-.153-.188-.247-.21-1.417-.407-2.835-.608-4.253q-.422-2.982-.845-5.964c-.022-.154-.035-.31-.057-.512.666,0,1.3-.01,1.934.013.077,0,.172.175.216.286a18.238,18.238,0,0,0,2.215,4.215,8.322,8.322,0,0,0,5.776,3.563,5.612,5.612,0,0,0,4.472-1.106,4.3,4.3,0,0,0,1.523-3.259,4.963,4.963,0,0,0-1.933-4.386,58.86,58.86,0,0,0-5.549-3.735c-1.4-.9-2.822-1.782-4.141-2.793a8.041,8.041,0,0,1-3.148-5.107,8.5,8.5,0,0,1,6.423-9.648c.546-.128,1.1-.2,1.658-.3h1.547a.664.664,0,0,0,.166.06,12.9,12.9,0,0,1,3.128.734c.734.262,1.483.489,2.233.7a.881.881,0,0,0,1.223-.588,8.659,8.659,0,0,0,.247-.91Z" transform="translate(-6291)" fill="#fff"/><path d="M7333.906,778.807q.239,2.375.479,4.75.306,3,.619,5.993c.007.072,0,.145,0,.27-.68,0-1.35.009-2.019-.014-.072,0-.173-.176-.2-.286a14.947,14.947,0,0,0-1.387-3.662,7.9,7.9,0,0,0-6.4-4.076,4.519,4.519,0,0,0-3.327,1.027,3.7,3.7,0,0,0-.777,4.5,5.5,5.5,0,0,0,1.349,1.632,21.267,21.267,0,0,0,3.43,2.4,64.1,64.1,0,0,1,6.235,4.1,13.252,13.252,0,0,1,2.52,2.458,7.757,7.757,0,0,1,1.466,4.242,8.769,8.769,0,0,1-1.253,5.452,9.642,9.642,0,0,1-6.259,4.231,13.6,13.6,0,0,1-7.567-.549c-.74-.257-1.487-.5-2.239-.716-.576-.166-.811-.026-.987.543-.094.3-.149.614-.227.942h-1.931c-.518-3.641-1.035-7.281-1.56-10.969.667,0,1.3-.011,1.936.012.08,0,.183.167.226.276a17.013,17.013,0,0,0,2.6,4.707,8.049,8.049,0,0,0,7.074,3.117,4.594,4.594,0,0,0,4.382-4.61,4.671,4.671,0,0,0-1.857-4.081c-1.557-1.166-3.194-2.229-4.814-3.309-1.518-1.014-3.1-1.938-4.579-3a8.361,8.361,0,0,1-3.34-4.62,8.475,8.475,0,0,1,6.218-10.445c.545-.131,1.1-.2,1.656-.3h1.547a.72.72,0,0,0,.169.058,13.145,13.145,0,0,1,3.235.758c.713.251,1.436.475,2.164.683a.889.889,0,0,0,1.234-.627c.109-.283.18-.581.269-.872Z" transform="translate(-6291)" fill="#fff"/><path d="M7167.422,795.623v-1.876h12.827v1.872c-.447.057-.894.106-1.339.171-1.113.161-1.465.469-1.681,1.567a7.987,7.987,0,0,0-.136,1.495q-.018,4.358,0,8.713a1.285,1.285,0,0,1-.632,1.24,22.965,22.965,0,0,1-2.53,1.246,24.55,24.55,0,0,1-7.008,1.731c-4.789.413-9.268-.409-13.19-3.369a14.736,14.736,0,0,1-5.978-10.4,17.2,17.2,0,0,1,1.79-10.474,15.466,15.466,0,0,1,12.208-8.523,20.659,20.659,0,0,1,8.724.842,13.033,13.033,0,0,0,1.779.454c1.133.174,1.467-.019,1.863-.958a.594.594,0,0,1,.677-.441c.476.033.955.008,1.5.008l.4,10.839c-.647,0-1.27.015-1.891-.015-.1,0-.226-.188-.292-.313-.58-1.1-1.1-2.246-1.732-3.318a8.252,8.252,0,0,0-6.1-4.156,10.4,10.4,0,0,0-8.413,2.35,9.78,9.78,0,0,0-3.363,5.51,22,22,0,0,0-.2,10.264,10.834,10.834,0,0,0,12.266,8.627,14.077,14.077,0,0,0,3.582-.932c.769-.313.873-.473.873-1.289,0-2.6.005-5.2-.018-7.794a11.127,11.127,0,0,0-.2-1.635,1.1,1.1,0,0,0-.916-.981c-.877-.163-1.761-.287-2.643-.427C7167.587,795.642,7167.526,795.636,7167.422,795.623Z" transform="translate(-6291)" fill="#fff"/><path d="M7247.019,793.146c.1.006.18.016.264.016,2.319,0,4.639.006,6.959-.023a11.268,11.268,0,0,0,1.748-.218,1.661,1.661,0,0,0,1.368-1.147c.28-.832.512-1.682.74-2.531.175-.655.056-.53.68-.541.5-.008,1,0,1.54,0v11.792c-.644,0-1.279.01-1.914-.011-.081,0-.2-.149-.227-.249-.177-.662-.324-1.331-.5-1.993-.069-.258-.185-.5-.277-.757a1.74,1.74,0,0,0-1.432-1.173,8.921,8.921,0,0,0-1.455-.2c-2.49-.02-4.981-.009-7.526-.009v10.713c0,1.174.154,1.378,1.313,1.393,2.281.029,4.564.057,6.843-.014a16.6,16.6,0,0,0,2.969-.483,5.247,5.247,0,0,0,3.045-2,13.348,13.348,0,0,0,1.838-3.165.352.352,0,0,1,.242-.195c.71-.015,1.421-.009,2.169-.009a3.037,3.037,0,0,1-.049.3q-1.119,4.165-2.235,8.329a.343.343,0,0,1-.4.311q-12.721-.009-25.444,0c-.085,0-.169-.01-.281-.016v-1.875c.5-.07,1.017-.123,1.528-.22.492-.094.978-.224,1.462-.356a1.037,1.037,0,0,0,.8-.867,14.473,14.473,0,0,0,.244-2.181q.021-10.623-.009-21.245a10.369,10.369,0,0,0-.159-1.457,1.36,1.36,0,0,0-1.1-1.23c-.668-.15-1.346-.257-2.021-.376-.226-.039-.456-.056-.7-.085v-1.944h25.765c.094,2.578.187,5.143.281,7.732h-2.211c-.214-.778-.425-1.542-.637-2.306-.023-.082-.056-.161-.083-.242a2.758,2.758,0,0,0-2.547-2.051c-1.123-.1-2.248-.208-3.374-.228-2.159-.038-4.32-.016-6.48-.019-.64,0-.768.1-.769.721q-.012,5-.006,10A.694.694,0,0,0,7247.019,793.146Z" transform="translate(-6291)" fill="#fff"/><path d="M7192.137,781.373v-1.931H7206.3v1.927l-2.028.228-.074.009c-1.5.243-1.948.718-2.063,2.231-.039.5-.06,1-.061,1.505q-.006,7.185,0,14.372a16.536,16.536,0,0,0,.49,4.366,5.76,5.76,0,0,0,4.506,4.4,11.488,11.488,0,0,0,5.612-.1,5.98,5.98,0,0,0,4.673-5.138,28.689,28.689,0,0,0,.368-4.31c.048-4.018.037-8.037,0-12.055a31.453,31.453,0,0,0-.285-3.36,1.841,1.841,0,0,0-1.44-1.632c-.634-.179-1.286-.295-1.932-.434-.165-.036-.335-.051-.509-.076v-1.938h11.812V781.3c-.458.071-.929.13-1.394.219-2.112.4-2.661,1-2.838,3.137-.066.8-.093,1.614-.1,2.422-.009,3.9,0,7.792-.006,11.688a21.251,21.251,0,0,1-.638,5.531,9.34,9.34,0,0,1-6.432,6.833,16.947,16.947,0,0,1-10.536.042,9.4,9.4,0,0,1-6.655-7.371,19.17,19.17,0,0,1-.445-3.967c-.052-5.047-.018-10.1-.036-15.143a9.68,9.68,0,0,0-.214-1.707,1.3,1.3,0,0,0-1.042-1.112c-.728-.16-1.465-.282-2.2-.413C7192.619,781.417,7192.386,781.4,7192.137,781.373Z" transform="translate(-6291)" fill="#fff"/></g></svg>