<svg xmlns="http://www.w3.org/2000/svg" width="120.208" height="34.708" viewBox="0 0 120.208 34.708"><path d="M7419.188,1167.32h2.425v-12.75h5.645v33.579h-5.611v-15.888h-2.422v15.882h-5.69v-33.59h5.653Z" transform="translate(-7413.535 -1154.039)" fill="#fff"/><path d="M7487.117,1188.128h-5.636v-15.912h-2.4v15.9h-5.642v-33.609h5.589v12.768h2.426V1154.51h5.662Z" transform="translate(-7413.535 -1154.039)" fill="#fff"/><path d="M7442.387,1154.562a2.227,2.227,0,0,1,.309-.044c2.746,0,5.494-.048,8.24.011a4.455,4.455,0,0,1,4.667,4.27,52.259,52.259,0,0,1,.029,7.623,4.336,4.336,0,0,1-2.281,3.482c1.849,1.178,2.339,2.887,2.3,4.907-.055,2.7-.024,5.413.041,8.118a6.965,6.965,0,0,0,2,5.193,4.372,4.372,0,0,1-.49.062c-1.965,0-3.93-.011-5.9.013-.421.006-.666-.144-.732-.524a21.318,21.318,0,0,1-.477-3.191c-.061-3.408-.022-6.817-.024-10.226,0-.24,0-.482-.02-.721a1.154,1.154,0,0,0-1.287-1.19c-.276,0-.552,0-.9,0v15.81h-5.487Zm5.822,5.041v8.315c.2.012.354.03.511.029,1.229,0,1.7-.476,1.7-1.71,0-1.761,0-3.522,0-5.283a1.207,1.207,0,0,0-1.218-1.346C7448.883,1159.578,7448.564,1159.6,7448.209,1159.6Z" transform="translate(-7413.535 -1154.039)" fill="#fff"/><path d="M7533.473,1165.114h-5.308c0-.223,0-.435,0-.648,0-1.444.012-2.888-.006-4.331a.937.937,0,0,0-.943-1.029c-.606-.027-1.093.293-1.1.86-.017,1.36-.009,2.725.08,4.082a4.251,4.251,0,0,0,1.175,2.455c1.384,1.611,2.791,3.2,4.15,4.835a8.614,8.614,0,0,1,2.2,5.824c-.039,1.9.059,3.811,0,5.714a5.39,5.39,0,0,1-3.89,5.339,8.744,8.744,0,0,1-5.668.111,5.165,5.165,0,0,1-3.85-5.028c-.084-2.283-.022-4.571-.021-6.857a1.449,1.449,0,0,1,.056-.267h5.513v1.685c0,1.545-.011,3.089,0,4.633a1.116,1.116,0,0,0,1.314,1.2,1.006,1.006,0,0,0,.958-1.041c.013-1.725.032-3.45-.006-5.174a4.684,4.684,0,0,0-1.431-2.97c-1.232-1.4-2.486-2.777-3.7-4.192a9.93,9.93,0,0,1-2.527-7.126c.062-1.38-.022-2.771.1-4.143a5.066,5.066,0,0,1,4.019-4.678,10.022,10.022,0,0,1,4.649-.1,4.732,4.732,0,0,1,4.187,4.586C7533.609,1160.916,7533.473,1163.005,7533.473,1165.114Z" transform="translate(-7413.535 -1154.039)" fill="#fff"/><path d="M7471,1165.118h-5.4v-.668c0-1.444.007-2.888,0-4.332a.89.89,0,0,0-.814-1.007c-.618-.074-1.188.229-1.21.805-.1,2.535-.377,5.086,1.711,7.16,1.4,1.394,2.619,2.98,3.883,4.51a8.793,8.793,0,0,1,2.041,6.009c-.04,1.7-.007,3.41-.008,5.115a5.4,5.4,0,0,1-3.748,5.442,8.54,8.54,0,0,1-6.285-.007,4.933,4.933,0,0,1-3.373-4.56c-.128-2.4-.042-4.812-.046-7.219a.824.824,0,0,1,.06-.2h5.524v.735c0,1.865-.008,3.731,0,5.6a1.135,1.135,0,0,0,1.476,1.186.934.934,0,0,0,.831-.956c0-1.765.024-3.531-.009-5.3a4.456,4.456,0,0,0-1.346-2.818c-1.332-1.525-2.709-3.011-4-4.568a9.589,9.589,0,0,1-2.294-6.666c.054-1.461-.051-2.937.119-4.383a5.067,5.067,0,0,1,4.347-4.716,9.757,9.757,0,0,1,4.762.111,4.862,4.862,0,0,1,3.71,4.387,6.839,6.839,0,0,1,.065.959C7471,1161.519,7471,1163.3,7471,1165.118Z" transform="translate(-7413.535 -1154.039)" fill="#fff"/><path d="M7508.925,1166.479c.549-3.984,1.1-7.968,1.651-11.977h4.585c-.307,1.747-.608,3.46-.909,5.172q-1.531,8.732-3.058,17.462a6,6,0,0,0-.076,1.017q-.01,4.6,0,9.207v.75h-5.793v-.682c0-2.909.094-5.821-.034-8.724a46.106,46.106,0,0,0-.757-5.7c-1.034-6.041-2.112-12.074-3.17-18.111a2.438,2.438,0,0,1,0-.386h5.728q.864,5.981,1.729,11.978Z" transform="translate(-7413.535 -1154.039)" fill="#fff"/><path d="M7499.71,1172.357h-4.077v10.864h4.7v4.892h-10.511V1154.5h10.021v4.918c-1.177,0-2.335.032-3.49-.013-.592-.023-.79.121-.778.753.043,2.226.016,4.452.018,6.679,0,.215.018.431.031.7h4.089Z" transform="translate(-7413.535 -1154.039)" fill="#fff"/><path d="M7429.969,1188.147v-33.58h10.178v4.848h-4.4v8.117h4.068v4.869h-4.068v10.888h4.737v4.858Z" transform="translate(-7413.535 -1154.039)" fill="#fff"/><path d="M7515.47,1161.226l1.139-6.72h4.235c-.262.705-.462,1.4-.768,2.035-.663,1.388-1.379,2.749-2.075,4.121a.975.975,0,0,1-1.071.573C7516.479,1161.19,7516.02,1161.226,7515.47,1161.226Z" transform="translate(-7413.535 -1154.039)" fill="#fff"/></svg>