<svg xmlns="http://www.w3.org/2000/svg" width="119.704" height="69.445" viewBox="0 0 119.704 69.445"><g transform="translate(-362.578 -758.523)"><path d="M6713.449,801.921a90.841,90.841,0,0,1-10.558-.73,63.47,63.47,0,0,1-15.992-4.122,35.348,35.348,0,0,1-10.26-6.183,17.469,17.469,0,0,1-4.442-5.858,11.582,11.582,0,0,1-1.037-5.527,12.612,12.612,0,0,1,2.194-6.241,22.119,22.119,0,0,1,5.938-5.854,42.518,42.518,0,0,1,10.55-5.2,60.036,60.036,0,0,1,11.178-2.722c2.384-.339,4.785-.6,7.187-.77,2.179-.155,4.373-.233,6.555-.178,2.578.066,5.157.247,7.725.494a64.105,64.105,0,0,1,10.652,1.983,48.472,48.472,0,0,1,12.958,5.417,25.146,25.146,0,0,1,6.426,5.488,13.461,13.461,0,0,1,3.092,6.805,11.7,11.7,0,0,1-1.325,7.062,18.592,18.592,0,0,1-4.558,5.519,36.927,36.927,0,0,1-10.655,6.113,59.761,59.761,0,0,1-13.508,3.516c-2.285.321-4.586.548-6.886.74C6716.944,801.823,6715.194,801.844,6713.449,801.921Zm38.837-21.771a9.581,9.581,0,0,0-1.778-5.44,17.889,17.889,0,0,0-4.7-4.616,16.593,16.593,0,0,0-1.742-1.1.87.87,0,0,0-1.343.44c-.158.3-.3.605-.434.915a141.812,141.812,0,0,1-6.431,13.095,78.412,78.412,0,0,1-8.33,12.336,2.344,2.344,0,0,0-.318.477.488.488,0,0,0,.44.761,2.81,2.81,0,0,0,.841-.032c2.078-.5,4.173-.944,6.22-1.548a38.037,38.037,0,0,0,10.74-4.917,17.47,17.47,0,0,0,5.492-5.556A9.182,9.182,0,0,0,6752.286,780.15Zm-53.405-16.809a5.42,5.42,0,0,0-.57.05,54.963,54.963,0,0,0-6.765,1.721,40.421,40.421,0,0,0-9.223,4.138,19.077,19.077,0,0,0-6.087,5.623,9.258,9.258,0,0,0,0,10.638,18.546,18.546,0,0,0,5.463,5.22,9.187,9.187,0,0,0,1.191.7.84.84,0,0,0,1.2-.419,8.886,8.886,0,0,0,.4-.819,144.329,144.329,0,0,1,6.616-13.454,83.6,83.6,0,0,1,5.849-9.129c.8-1.064,1.649-2.087,2.466-3.136.191-.245.417-.512.245-.856C6699.5,763.29,6699.172,763.36,6698.881,763.341Zm13.956,35.114c.415-.023,1.242-.015,2.054-.122a6.345,6.345,0,0,0,4.469-2.985,25.31,25.31,0,0,0,2.584-5.487,9.427,9.427,0,0,0,.664-3.633,3.219,3.219,0,0,0-2.244-3.1,7.247,7.247,0,0,0-2.838-.31,23.26,23.26,0,0,0-4.824.983,85.372,85.372,0,0,0-8.935,3.186,51.639,51.639,0,0,0-10.986,5.912,13.437,13.437,0,0,0-1.278,1.053.729.729,0,0,0,.205,1.317,4.428,4.428,0,0,0,.66.254,67.1,67.1,0,0,0,11.7,2.379C6706.846,798.23,6709.634,798.384,6712.837,798.455Zm-3.969-20.925c.113,0,.226,0,.338,0a18.748,18.748,0,0,0,4.408-.8,82.608,82.608,0,0,0,9.772-3.443,52.418,52.418,0,0,0,9.663-5.04,27.086,27.086,0,0,0,2.454-1.9c.515-.444.394-.962-.214-1.264a2.032,2.032,0,0,0-.342-.142c-1.225-.344-2.436-.748-3.678-1.01-2.189-.462-4.387-.9-6.6-1.227-2.014-.295-4.051-.44-6.08-.616-1.066-.092-2.138-.13-3.208-.149a25.565,25.565,0,0,0-3.071.049,6.463,6.463,0,0,0-4.848,3.254,26.784,26.784,0,0,0-2.362,5.075,9.308,9.308,0,0,0-.722,3.791,3.163,3.163,0,0,0,2.007,3.02A6.049,6.049,0,0,0,6708.868,777.53Z" transform="translate(-6291)" fill="#fff"/><path d="M6765.153,810.665v17.261h-4.086v-.4c0-1.511-.007-3.022,0-4.533,0-.294-.054-.409-.384-.406-2.267.015-4.535.008-6.8.008-.1,0-.2.009-.345.016v5.323h-4.069v-.367q0-6.766,0-13.532a3.234,3.234,0,0,1,3.357-3.387c4-.012,8.009,0,12.013,0C6764.942,810.645,6765.041,810.657,6765.153,810.665Zm-4.106,3.721h-6.5a.912.912,0,0,0-1.019,1.019c0,1.047.008,2.095-.007,3.143,0,.276.088.338.349.337,2.276-.01,4.552-.006,6.829-.008.109,0,.218-.011.345-.018Z" transform="translate(-6291)" fill="#fff"/><path d="M6730.065,827.935v-.57q0-8.136,0-16.272c0-.449,0-.449.434-.449,3.926,0,7.851-.007,11.777.005a3.155,3.155,0,0,1,3.075,1.7,3.672,3.672,0,0,1,.387,1.552q.048,5.4.012,10.792a3.154,3.154,0,0,1-3.321,3.257c-4.027.016-8.054,0-12.081,0C6730.271,827.956,6730.193,827.945,6730.065,827.935Zm4.119-3.712a1.571,1.571,0,0,0,.21.032c2.109,0,4.218.006,6.328,0a.9.9,0,0,0,.972-.979q.014-3.957,0-7.915a.869.869,0,0,0-.995-.968q-3.08,0-6.159,0c-.119,0-.237.011-.358.016Z" transform="translate(-6291)" fill="#fff"/><path d="M6669.218,827.935h-4.026v-6.908h-7.535v6.91h-4.079v-17.26h4.067v6.567c.14.008.238.018.337.018,2.279,0,4.558-.006,6.837.009.316,0,.369-.109.367-.391-.011-1.929-.007-3.858-.008-5.786v-.426h4.04Z" transform="translate(-6291)" fill="#fff"/><path d="M6710.544,810.644h.414q5.889,0,11.778,0a3.249,3.249,0,0,1,3.475,3.413c.024,4.534.007,9.068,0,13.6,0,.088-.015.176-.025.278h-4.068v-.383l0-12.215a.84.84,0,0,0-.89-.954q-3.165,0-6.329,0c-.088,0-.176.013-.3.023v13.522h-4.061Z" transform="translate(-6291)" fill="#fff"/><path d="M6702.568,810.644h1.222c.835,0,1.67.008,2.5,0,.255,0,.356.065.355.34-.007,4.533,0,9.066-.01,13.6a3.216,3.216,0,0,1-3.485,3.381l-11.5,0h-.66V810.668h4.049v.388q0,6.394-.007,12.788c0,.32.08.424.412.422,2.03-.015,4.06-.006,6.091-.008a.9.9,0,0,0,1.032-1.04q0-6.055,0-12.11Z" transform="translate(-6291)" fill="#fff"/><path d="M6670.962,810.645h.564c1.3,0,2.594,0,3.891-.007a.554.554,0,0,1,.54.3c1.3,2.1,2.617,4.184,3.928,6.274.053.083.114.162.2.286.082-.112.15-.193.206-.281,1.3-2.061,2.6-4.118,3.878-6.187a.734.734,0,0,1,.729-.4c1.308.022,2.617.009,3.925.009h.421c-.538.86-1.037,1.659-1.538,2.457q-2.714,4.324-5.42,8.651a1.145,1.145,0,0,0-.151.57q-.015,2.622,0,5.243c0,.3-.069.409-.39.4-1.093-.021-2.188-.01-3.282-.011h-.411v-.426c0-1.748.006-3.5-.007-5.243a1.135,1.135,0,0,0-.162-.564q-3.316-5.3-6.646-10.6C6671.156,810.995,6671.083,810.856,6670.962,810.645Z" transform="translate(-6291)" fill="#fff"/><path d="M6773.282,827.937H6769.2v-.388q0-8.274-.006-16.547c0-.276.068-.369.357-.365,1.14.017,2.279.006,3.419.008.1,0,.2.011.309.019Z" transform="translate(-6291)" fill="#fff"/></g></svg>