<svg xmlns="http://www.w3.org/2000/svg" width="173.446" height="31.369" viewBox="0 0 173.446 31.369"><path d="M6429.106,808.663a2.4,2.4,0,0,0-.289-.054,20.032,20.032,0,0,1-4.543-.819,16.443,16.443,0,0,1-7.919-5.15,14.356,14.356,0,0,1-2.99-5.949,15.449,15.449,0,0,1-.354-5,15.252,15.252,0,0,1,5.353-10.361,16.84,16.84,0,0,1,7.231-3.556,19.927,19.927,0,0,1,5.71-.443,17.844,17.844,0,0,1,7.034,1.84,15.476,15.476,0,0,1,7.766,8.488,15,15,0,0,1,.938,4.342,15.373,15.373,0,0,1-.658,5.72,14.153,14.153,0,0,1-2.3,4.444,16.144,16.144,0,0,1-7.925,5.5,17.946,17.946,0,0,1-3.9.835c-.37.038-.741.069-1.111.107-.08.008-.158.032-.238.048Zm-12.049-15.5c.055.564.081,1.219.187,1.861a12.062,12.062,0,0,0,3.207,6.425,12.936,12.936,0,0,0,12.579,3.7,13.108,13.108,0,0,0,7.528-4.961,11.6,11.6,0,0,0,2.2-9.43,12.676,12.676,0,0,0-7.7-9.405,13.159,13.159,0,0,0-6.544-.836,12.861,12.861,0,0,0-11.456,12.647Z" transform="translate(-6387.71 -777.294)" fill="#fff"/><path d="M6469.923,796.086c2.435,3.58,5.039,6.978,7.652,10.42a2.106,2.106,0,0,1-.227.026c-1.353,0-2.707-.005-4.06.008a.427.427,0,0,1-.386-.237q-2.163-3-4.328-6.006-1.464-2.031-2.924-4.065a.408.408,0,0,0-.379-.2q-4.89.009-9.781.005h-.256c0,1.172,0,2.329,0,3.487v6.954a35.272,35.272,0,0,1-3.549.037c-.058-.188-.075-24.633-.014-24.976.073-.005.151-.017.23-.017q7.752,0,15.5,0a11.682,11.682,0,0,1,3.859.584,6.91,6.91,0,0,1,3.972,3.245,7.316,7.316,0,0,1,.894,2.891,6.747,6.747,0,0,1-2.893,6.316,9.285,9.285,0,0,1-2.983,1.419C6470.158,796.01,6470.066,796.041,6469.923,796.086Zm-14.676-2.994h.294q5.665,0,11.33,0a10.412,10.412,0,0,0,1.924-.157,4.373,4.373,0,0,0,2.125-.916,4.222,4.222,0,0,0,1.408-4.222,3.828,3.828,0,0,0-2.479-2.856,6.6,6.6,0,0,0-2.61-.45q-5.856,0-11.711,0h-.281Z" transform="translate(-6387.71 -777.294)" fill="#fff"/><path d="M6536.593,806.52c-.121.006-.2.013-.278.013-1.235,0-2.471-.005-3.706.006a.375.375,0,0,1-.389-.25q-1.494-2.962-3-5.92l-.151-.3h-15.275c-.044.083-.091.17-.135.258-1,1.976-1.993,3.951-2.978,5.931a.429.429,0,0,1-.456.277c-1.216-.012-2.434-.006-3.651-.006h-.276c-.039-.13.047-.214.092-.3q1.33-2.621,2.665-5.237,4.881-9.586,9.763-19.172a1.564,1.564,0,0,0,.074-.145.229.229,0,0,1,.255-.153c1.507,0,3.015.006,4.523,0a.3.3,0,0,1,.3.212q.916,1.808,1.838,3.612,5.312,10.421,10.621,20.842C6536.482,806.287,6536.53,806.391,6536.593,806.52Zm-9.173-9.611c-.062-.26-5.893-11.715-6.032-11.856-.327.525-5.886,11.653-5.922,11.856Z" transform="translate(-6387.71 -777.294)" fill="#fff"/><path d="M6485.94,803.809h18.509v2.7h-22.332c-.053-.2-.067-24.642-.012-24.971h22.339v2.691c-.617.026-1.231.008-1.844.011s-1.235,0-1.853,0h-14.823c-.04.683-.012,1.35-.017,2.015s0,1.342,0,2.014v4.015h13.88a19.237,19.237,0,0,1,.041,2.761c-.919.022-1.841.007-2.762.009s-1.853,0-2.779,0h-8.33C6485.9,795.261,6485.877,803.409,6485.94,803.809Z" transform="translate(-6387.71 -777.294)" fill="#fff"/><path d="M6538.554,781.538h3.476v22.248c.663.034,1.3.011,1.927.015s1.271,0,1.906,0h15.293v2.716h-22.6Z" transform="translate(-6387.71 -777.294)" fill="#fff"/><path d="M6391.18,803.8h19.085a20.571,20.571,0,0,1,.031,2.716H6387.71V781.571a33.9,33.9,0,0,1,3.47-.017Z" transform="translate(-6387.71 -777.294)" fill="#fff"/><path d="M6406.462,790.367H6403.9c.035-.106.06-.2.1-.283l2.791-7.022c.178-.447.358-.892.53-1.34a.255.255,0,0,1,.273-.2c1.144.007,2.288,0,3.432,0a.745.745,0,0,1,.1.014C6411.089,781.744,6406.8,789.861,6406.462,790.367Z" transform="translate(-6387.71 -777.294)" fill="#fff"/><path d="M6500.043,777.539l-9.271,3.313-.022-.038c.058-.069.114-.139.174-.206q1.311-1.473,2.621-2.946a.447.447,0,0,1,.365-.182c2,.006,4.01,0,6.015,0,.036,0,.072,0,.108.005Z" transform="translate(-6387.71 -777.294)" fill="#fff"/></svg>