<svg xmlns="http://www.w3.org/2000/svg" width="157.518" height="28.204" viewBox="0 0 157.518 28.204"><path d="M6907.035,1173.081h-3.665v-13.527h3.795c3.842.034,5.58,3.2,5.58,6.867,0,4.272-2,6.654-5.71,6.66m1.271-15.789h-10.981v.2c.25.262.77.77.77,2.817v22.173c0,2.048-.52,2.561-.77,2.819v.2h6.816v-.2c-.256-.258-.771-.771-.771-2.819v-7.141h4.607c6.946.11,10.4-5,10.4-8.915,0-5.848-4.82-9.178-10.208-9.129" transform="translate(-6897.325 -1157.292)" fill="#fff" fill-rule="evenodd"/><path d="M6962.172,1157.292v20.415l-13.2-20.415H6942.9v.2c.858.572,1.347,1.792,1.347,3.619v21.371c0,2.049-.513,2.561-.767,2.819v.2h3.445v-21.82l13.746,21.82h4.178V1160.3c0-2.047.513-2.559.767-2.817v-.2h-3.447" transform="translate(-6897.325 -1157.292)" fill="#fff" fill-rule="evenodd"/><path d="M7030.717,1157.292v20.415l-13.2-20.415h-6.067v.2c.855.572,1.343,1.792,1.343,3.619v21.371c0,2.049-.509,2.561-.769,2.819v.2h3.45v-21.82l13.744,21.82h4.179V1160.3c0-2.047.515-2.559.766-2.817v-.2h-3.446" transform="translate(-6897.325 -1157.292)" fill="#fff" fill-rule="evenodd"/><path d="M7008.939,1181.948c-3.115,1.779-10.9.907-10.9.907v-10.667h4.156a7.942,7.942,0,0,1,3.688.531h.177v-3.233h-.177a7.838,7.838,0,0,1-3.688.534h-4.156v-10.309s7.181-.607,10.758,1.056l.152-.1c-.065-.7-.317-3.378-.317-3.378H6991.99v.2c.26.262.775.77.775,2.817v22.173c0,2.045-.515,2.561-.775,2.819v.2h16.775l.335-3.446-.161-.1" transform="translate(-6897.325 -1157.292)" fill="#fff" fill-rule="evenodd"/><path d="M7054.685,1181.948c-3.119,1.779-10.9.907-10.9.907v-10.667h4.158a7.933,7.933,0,0,1,3.686.531h.18v-3.233h-.18a7.828,7.828,0,0,1-3.686.534h-4.158v-10.309s7.184-.607,10.756,1.056l.156-.1c-.068-.7-.319-3.378-.319-3.378h-16.644v.2c.259.262.773.77.773,2.817v22.173c0,2.045-.514,2.561-.773,2.819v.2h16.775l.335-3.446-.158-.1" transform="translate(-6897.325 -1157.292)" fill="#fff" fill-rule="evenodd"/><path d="M6988.313,1161.145l.152-.1-.358-3.751h-19.488l-.359,3.751.156.1c2.853-1.473,7.308-1.463,7.308-1.463v22.8c0,2.049-.518,2.561-.769,2.819v.2h6.81v-.2c-.249-.258-.764-.77-.764-2.819v-22.8s4.448-.01,7.312,1.463" transform="translate(-6897.325 -1157.292)" fill="#fff" fill-rule="evenodd"/><path d="M6924.076,1173.081l3.735-11.088,3.736,11.088Zm17.869,12.215c-.655-.42-1.352-1.3-2.011-3.233l-8.337-24.771h-6.36v.193a1.818,1.818,0,0,1,.5,2.146c-.313.937-7.528,22.378-7.528,22.378-.686,1.975-1.378,2.846-2.022,3.287v.2h3.714l3.419-10.16h8.986l3.418,10.16h6.222v-.2Z" transform="translate(-6897.325 -1157.292)" fill="#fff" fill-rule="evenodd"/></svg>