<svg xmlns="http://www.w3.org/2000/svg" width="147.699" height="52.464" viewBox="0 0 147.699 52.464"><g transform="translate(0 0.56)"><path d="M7218.127,944.323c5.295,0,10.592.119,15.882-.034a9.7,9.7,0,0,1,10.058,9.913q.176,15.574,0,31.153c-.067,6.131-4.149,10.039-10.268,10.065q-15.583.065-31.166,0c-6.182-.032-10.108-3.988-10.124-10.108q-.04-15.428,0-30.854c.015-6.241,3.8-10.061,10.036-10.122C7207.738,944.283,7212.933,944.323,7218.127,944.323Zm16.64,25.835a34.271,34.271,0,0,0-.512-3.83c-1.969-8.025-10.1-13.5-17.8-12.027-8.97,1.715-14.744,9.442-13.571,18.165.794,5.907,7.381,13.429,12.956,13.657,3.181.13,6.766.1,9.784-1.735,1.845-1.119,3.314-.663,4.667.839.532.589,1.184,1.068,1.743,1.634,1.167,1.179,2.3.626,3.244-.2a2.186,2.186,0,0,0,.526-3.182,14.385,14.385,0,0,0-2.258-2.375c-1.365-1.115-1.7-2.175-.66-3.789A12.83,12.83,0,0,0,7234.767,970.158Z" transform="translate(-7192.488 -944.285)" fill="#fff"/></g><path d="M7309.32,979.783a14.812,14.812,0,0,1,25.456-9.666c4.23,4.622,5.421,10.141,2.754,15.752-1.31,2.758-.7,4.053,1.249,5.6.983.78,1.73,1.749,1.27,3.091a2.306,2.306,0,0,1-1.973,1.607c-1.424.2-2.246-.756-3-1.644-1.421-1.665-2.529-2.164-4.94-1.035A14.637,14.637,0,0,1,7309.32,979.783Zm14.828,10.261a9.864,9.864,0,0,0,9.923-10.1,10.033,10.033,0,0,0-10.086-9.683,10.453,10.453,0,0,0-10.056,10.187C7314.015,985.617,7318.762,990.075,7324.148,990.044Z" transform="translate(-7192.489 -943.725)" fill="#fff"/><path d="M7251.377,980.5c0-.9-.065-1.8.01-2.687.86-10.139,10.911-15.518,19.9-10.63a11.786,11.786,0,0,1,2.589,1.981c1.138,1.124,1.917,2.538.509,3.893-1.289,1.24-2.577.469-3.647-.593a8.59,8.59,0,0,0-9.055-2.189c-3.494,1.019-5.23,4.019-5.442,9.31-.235,5.857,1.264,9.525,4.755,10.6,3.554,1.1,7.049.932,10.059-1.759,1.085-.97,2.352-2.245,3.789-.517,1.463,1.76.136,3.047-1.114,4-4.866,3.719-10.3,4.108-15.782,1.832C7252.088,991.315,7251.684,985.84,7251.377,980.5Z" transform="translate(-7192.489 -943.725)" fill="#fff"/><path d="M7279.56,980.426c0-3.788.024-7.577-.012-11.365-.016-1.692.389-3.043,2.368-3.065s2.469,1.319,2.468,3c0,6.082.091,12.166-.051,18.244-.049,2.111.3,3.075,2.69,2.815,2.267-.247,4.583-.019,6.876-.064,1.641-.032,2.849.606,2.842,2.3-.007,1.578-1.206,2.083-2.709,2.072-3.889-.03-7.78-.027-11.669.029-2.037.03-2.86-.887-2.823-2.9C7279.609,987.8,7279.56,984.115,7279.56,980.426Z" transform="translate(-7192.489 -943.725)" fill="#fff"/><path d="M7280.044,957.456c-7.14,2.335-6.013-4.224-8.164-7.475-1.081,1.078-1.2,2.495-1.65,3.714-1.571,4.243-1.532,4.258-6.686,3.858,1.682-4.3,3.2-8.566,5.02-12.69.9-2.042,3.044-.641,4.586-.987,1.206-.271,1.831.473,2.223,1.488C7276.94,949.416,7278.5,953.47,7280.044,957.456Z" transform="translate(-7192.489 -943.725)" fill="#fff"/><path d="M7291.429,957.564c1.676-4.274,3.33-8.284,4.809-12.358.646-1.78,1.994-1.389,3.186-1.3,1.333.094,3.011-.8,3.785,1.3,1.364,3.707,2.844,7.374,4.343,11.03.535,1.306,0,1.461-1.141,1.541-2.352.165-4.254,0-4.758-2.968a32.586,32.586,0,0,0-1.917-5.33c-.617,1.634-1.093,2.822-1.515,4.029C7296.663,957.959,7296.67,957.961,7291.429,957.564Z" transform="translate(-7192.489 -943.725)" fill="#fff"/><path d="M7257.889,943.883c1.295,0,2.591-.044,3.882.013,1.15.051,2.657-.618,2.623,1.665-.027,1.747-.36,2.672-2.3,2.339-1.334-.228-1.707.458-1.642,1.712.087,1.687.023,3.382.021,5.073,0,2.834-1.723,3.953-4.465,3.021-.96-.326-.8-1.005-.814-1.653-.031-1.592-.075-3.187,0-4.775.1-1.97.355-3.767-2.715-3.413-1.863.215-.877-1.56-1.079-2.45-.245-1.087.165-1.631,1.416-1.557C7254.5,943.959,7256.2,943.883,7257.889,943.883Z" transform="translate(-7192.489 -943.725)" fill="#fff"/><path d="M7285.811,943.907a26.84,26.84,0,0,1,3.578.036c1.1.148,2.887-1.025,2.9,1.594.007,1.942-.491,2.749-2.469,2.423-1.3-.215-1.424.618-1.4,1.632.042,1.69.012,3.383.011,5.074,0,2.87-1.634,3.922-4.491,3.06-1.044-.315-.752-1.013-.767-1.626-.041-1.69-.091-3.386.006-5.072.109-1.924.192-3.557-2.622-3.1-1.686.275-1.132-1.232-1.193-2.09-.069-.957-.274-2.055,1.373-1.956C7282.421,943.985,7284.118,943.906,7285.811,943.907Z" transform="translate(-7192.489 -943.725)" fill="#fff"/><path d="M7300.423,984.187c0-2.491.014-4.982,0-7.473-.012-1.611.59-2.811,2.315-2.861,1.755-.05,2.452,1.242,2.471,2.761q.092,7.471-.009,14.945c-.018,1.487-.529,2.794-2.387,2.8-2.048.01-2.4-1.323-2.38-3,.033-2.39.009-4.782.009-7.173Z" transform="translate(-7192.489 -943.725)" fill="#fff"/><path d="M7301.524,963.528c1.519.1,5.085,3.893,5.048,5.178a2.348,2.348,0,0,1-3.856,1.855,22.961,22.961,0,0,1-3.176-3.1,2.155,2.155,0,0,1-.515-2.695C7299.624,963.675,7300.93,964.183,7301.524,963.528Z" transform="translate(-7192.489 -943.725)" fill="#fff"/><path d="M7218.644,980.585a10.508,10.508,0,0,1-10.6-10.588c.083-5.072,4.707-10.475,8.917-10.421,8.07.1,12.431,3.727,12.427,10.325A10.276,10.276,0,0,1,7218.644,980.585Z" transform="translate(-7192.489 -943.725)" fill="#fff"/></svg>