<svg xmlns="http://www.w3.org/2000/svg" width="185.342" height="52.199" viewBox="0 0 185.342 52.199"><path d="M6428.007,967.136q0,8.178,0,16.355a6.591,6.591,0,0,1-6.874,6.907q-16.386.03-32.772,0a6.592,6.592,0,0,1-6.89-6.793q-.056-16.47,0-32.941a6.589,6.589,0,0,1,6.891-6.791q16.386-.03,32.773,0a6.59,6.59,0,0,1,6.872,6.907Q6428.015,958.958,6428.007,967.136Zm-28.93-7.747c0,2.954,0,5.789,0,8.623-.006,2.165-1.164,3.384-3.185,3.372-2.04-.012-3.175-1.194-3.194-3.387-.021-2.455,0-4.91-.008-7.364,0-.4-.037-.809-.057-1.207h-3.941c0,2.689-.011,5.294,0,7.9a14.624,14.624,0,0,0,.137,2.749c.577,2.886,2.6,4.484,6.212,4.79,4.433.377,8.35-1.54,8.055-7.1-.124-2.333-.021-4.678-.021-7.017v-1.362Zm18.581,9.92c-2.049,2.447-4.1,2.8-5.965,1.109a4.606,4.606,0,0,1-.075-6.507c1.853-1.756,3.909-1.425,6.046,1.036l3.144-1.528c-1.554-3.271-4.656-4.656-8.452-3.849a7.776,7.776,0,0,0-.095,15.1c3.742.881,6.958-.541,8.534-3.841Z" transform="translate(-6381.442 -943.858)" fill="#fff"/><path d="M6471.661,945.042h3.561v7.568a6.382,6.382,0,0,1,6.174-1.979,6.853,6.853,0,0,1,4.292,2.693,8.326,8.326,0,0,1-.611,10.582c-2.659,2.666-6.258,2.773-9.777.211l-.218,1.421h-3.421Zm11.937,13.206a4.225,4.225,0,0,0-4.279-4.436,4.3,4.3,0,0,0-4.249,4.384,4.346,4.346,0,0,0,4.248,4.52A4.3,4.3,0,0,0,6483.6,958.248Z" transform="translate(-6381.442 -943.858)" fill="#fff"/><path d="M6442.4,945.575h3.687v1.389c0,3.724-.02,7.448.007,11.171.021,2.771,1.5,4.265,4.067,4.2a3.446,3.446,0,0,0,3.68-3.235c.2-2.016.145-4.059.164-6.091.023-2.448.005-4.9.005-7.415h3.771v1.267c0,3.916.026,7.832-.011,11.747-.028,3.045-1.179,5.524-4.148,6.694-3.157,1.244-6.273,1.094-9.018-1.131a6.327,6.327,0,0,1-2.282-4.983c-.077-4.413-.033-8.828-.033-13.242A1.509,1.509,0,0,1,6442.4,945.575Z" transform="translate(-6381.442 -943.858)" fill="#fff"/><path d="M6504.489,965.565h-3.29l-.112-1.584a6.551,6.551,0,0,1-5.573,1.99,6.921,6.921,0,0,1-5.036-2.9,8.46,8.46,0,0,1,.584-10.434c2.554-2.694,5.931-2.789,10.031-.246l.106-1.518h3.29Zm-3.311-7.37a4.3,4.3,0,1,0-4.334,4.523A4.311,4.311,0,0,0,6501.178,958.2Z" transform="translate(-6381.442 -943.858)" fill="#fff"/><path d="M6502.025,989.746h-2.462c0-2.419,0-4.756,0-7.093,0-.614.006-1.23-.045-1.841-.185-2.254-1.556-3.644-3.545-3.626a3.832,3.832,0,0,0-3.848,3.8c-.072,2.417-.022,4.837-.024,7.256,0,.458,0,.917,0,1.481h-2.5c0-2.388.018-4.759-.009-7.13a13.687,13.687,0,0,0-.212-2.514,3.215,3.215,0,0,0-3.011-2.849,3.612,3.612,0,0,0-3.89,2.245,7.878,7.878,0,0,0-.473,2.576c-.061,2.53-.022,5.063-.022,7.687h-2.445v-14.4h2.325l.161,1.705a5.3,5.3,0,0,1,4.6-2.159,5.184,5.184,0,0,1,4.283,2.517,6.7,6.7,0,0,1,4.411-2.466c3.8-.39,6.442,1.623,6.669,5.421C6502.173,983.451,6502.025,986.567,6502.025,989.746Z" transform="translate(-6381.442 -943.858)" fill="#fff"/><path d="M6511.183,965.595h-3.5V950.911h3.347l.115,1.5a1.309,1.309,0,0,0,.373-.183,5.726,5.726,0,0,1,6.468-1.353,5.058,5.058,0,0,1,3.508,4.934c.111,3.212.028,6.43.028,9.739h-3.575c0-2.343.007-4.669,0-6.995a11.413,11.413,0,0,0-.1-1.945,3.016,3.016,0,0,0-3.188-2.833,3.312,3.312,0,0,0-3.343,2.9,32.13,32.13,0,0,0-.129,3.9C6511.169,962.209,6511.183,963.849,6511.183,965.595Z" transform="translate(-6381.442 -943.858)" fill="#fff"/><path d="M6506.95,988.012v7.717h-2.383V975.316h2.333l.1,1.953a6.851,6.851,0,0,1,6.572-2.25,6.745,6.745,0,0,1,4.174,2.473,8.181,8.181,0,0,1-.372,10.562C6514.692,990.854,6510.848,990.885,6506.95,988.012Zm4.941-10.826a5.369,5.369,0,1,0,5.138,5.347A5.046,5.046,0,0,0,6511.891,977.186Z" transform="translate(-6381.442 -943.858)" fill="#fff"/><path d="M6460.608,973.864l-1.8,1.454c-4.908-4.3-9.472-4.546-12.808-.728a8.2,8.2,0,0,0,.659,11.151c2.91,2.611,8.486,2.975,12.168-1.535l1.786,1.465c-1.717,3.3-6.924,5.206-11.3,4.2a9.972,9.972,0,0,1-7.834-9.714,10.278,10.278,0,0,1,7.456-10.412C6453.343,968.494,6458.481,970.259,6460.608,973.864Z" transform="translate(-6381.442 -943.858)" fill="#fff"/><path d="M6533.41,977.057l.1-1.757h2.186v14.46h-2.2l-.08-1.826a6.913,6.913,0,0,1-6.44,2.159,6.842,6.842,0,0,1-4.35-2.583,8.251,8.251,0,0,1,.321-10.381C6525.7,974.252,6529.315,974.212,6533.41,977.057Zm-9.918,5.554a4.988,4.988,0,0,0,5.02,5.3,5.366,5.366,0,0,0,0-10.723C6525.572,977.191,6523.477,979.456,6523.492,982.611Z" transform="translate(-6381.442 -943.858)" fill="#fff"/><path d="M6469.984,974.93a7.631,7.631,0,1,1-7.738,7.546A7.406,7.406,0,0,1,6469.984,974.93Zm-5.2,7.536a5.14,5.14,0,1,0,10.268.114,5.291,5.291,0,0,0-5.033-5.382A5.208,5.208,0,0,0,6464.788,982.466Z" transform="translate(-6381.442 -943.858)" fill="#fff"/><path d="M6566.784,975.237c-1.189,3.157-2.3,6.125-3.424,9.091-.96,2.544-1.889,5.1-2.911,7.62a10.624,10.624,0,0,1-1.48,2.575,4.425,4.425,0,0,1-4.823,1.3c-.578-.191-.822-.47-.666-1.092a8.77,8.77,0,0,0,.144-1.185c.157-.074.232-.145.29-.133a3.812,3.812,0,0,0,4.886-3.542,2.206,2.206,0,0,0-.293-.967q-2.687-6.164-5.384-12.321c-.167-.381-.312-.771-.54-1.34a13.662,13.662,0,0,1,2.338.04,1.523,1.523,0,0,1,.869.856c1.268,2.958,2.486,5.937,3.722,8.908.129.31.274.614.493,1.1.2-.434.346-.71.451-1,1.024-2.847,2.08-5.684,3.038-8.553.338-1.013.8-1.569,1.932-1.363A8.833,8.833,0,0,0,6566.784,975.237Z" transform="translate(-6381.442 -943.858)" fill="#fff"/><path d="M6541.3,989.761h-2.422V975.315h2.314l.143,1.63a5.561,5.561,0,0,1,4.794-2.067,5.442,5.442,0,0,1,5.491,5.53c.114,2.721.027,5.451.029,8.177v1.137h-2.5v-6.547c0-.538.007-1.076,0-1.613-.037-2.662-1.473-4.341-3.728-4.365-2.372-.025-4.088,1.814-4.114,4.454-.022,2.3,0,4.607,0,6.91Z" transform="translate(-6381.442 -943.858)" fill="#fff"/><path d="M6464.208,965.573h-3.578V950.9h3.323l.13,1.694a4.909,4.909,0,0,1,4.835-2.082c.734.082,1.131.293.962,1.149-.153.777-.165,1.582-.245,2.44-.334-.036-.588-.061-.842-.092-2.812-.348-4.5,1.077-4.573,3.932-.051,2.144-.011,4.291-.012,6.437Z" transform="translate(-6381.442 -943.858)" fill="#fff"/></svg>