<svg xmlns="http://www.w3.org/2000/svg" width="127.777" height="33.65" viewBox="0 0 127.777 33.65"><path d="M7676.431,1165.168c1.126.2,1.593,1.128,2.146,1.955q4.449,6.656,8.894,13.314c1.849,2.765,2.174,2.772,3.965.094q4.644-6.944,9.284-13.89a6.4,6.4,0,0,1,6.937-2.2c1.253.479.6,1.185.191,1.8q-2.427,3.681-4.9,7.332c-2.6,3.846-5.142,7.729-7.828,11.512a6.177,6.177,0,0,1-7.263,2.566,1.185,1.185,0,0,0,.11-.181c.46-.22.063-.139-.05-.136a4.378,4.378,0,0,0-1.271.095,7.257,7.257,0,0,1-3.38-3.073c-4.081-6.013-8.111-12.06-12.144-18.1a4.454,4.454,0,0,1-.367-1.051A8.08,8.08,0,0,1,7676.431,1165.168Z" transform="translate(-7670.753 -1154.569)" fill="#fff"/><path d="M7730.349,1165.663c3.549,5.207,7.21,10.344,10.592,15.658,1.315,2.067,2.033,1.372,2.978-.034,3.193-4.754,6.348-9.534,9.559-14.276.582-.859.912-2.011,2.141-2.288,1.743.194,3.551-.389,5.24.44.662.569.054.974-.214,1.372-4.141,6.159-8.276,12.323-12.47,18.445a4.349,4.349,0,0,1-2.6,2.181,5.545,5.545,0,0,1-1.449.191c-.3.031-.419.281-.144.137.012-.006.083.1.127.159a5.584,5.584,0,0,1-6.659-1.815c-4.681-6.28-9-12.82-13.139-19.472-.363-.959.021-1.535.988-1.567C7727.031,1164.736,7728.84,1164.373,7730.349,1165.663Z" transform="translate(-7670.753 -1154.569)" fill="#fff"/><path d="M7713.636,1164.9c1.836-.692,3.659-1.3,5.061.79-.248,6.977-.274,13.954.009,20.93-1.251,2.521-3.182,1.365-4.981.919a4.338,4.338,0,0,1-.3-2.041q.006-9.624.005-19.249A2.217,2.217,0,0,1,7713.636,1164.9Z" transform="translate(-7670.753 -1154.569)" fill="#fff"/><path d="M7719.579,1158.367c-.042.646-2.973,3.429-3.611,3.428-.791,0-3.663-2.883-3.635-3.647.023-.614,2.878-3.548,3.483-3.579A18.237,18.237,0,0,1,7719.579,1158.367Z" transform="translate(-7670.753 -1154.569)" fill="#fff"/><path d="M7713.636,1164.9q.045,11.319.089,22.639c-.629-.3-.537-.882-.538-1.41q-.009-10,0-20.005C7713.184,1165.665,7713.136,1165.18,7713.636,1164.9Z" transform="translate(-7670.753 -1154.569)" fill="#fff"/><path d="M7718.706,1186.621a1.581,1.581,0,0,1-.391-1.285q0-9.179,0-18.356a1.6,1.6,0,0,1,.382-1.289Q7718.7,1176.156,7718.706,1186.621Z" transform="translate(-7670.753 -1154.569)" fill="#fff"/><path d="M7730.349,1165.663a11.727,11.727,0,0,0-4.457-.467c-.848-.016-1.5.167-1.582,1.165-1.158-1.044-1.239-2.005.562-1.919C7726.724,1164.531,7728.955,1163.4,7730.349,1165.663Z" transform="translate(-7670.753 -1154.569)" fill="#fff"/><path d="M7676.431,1165.168l-5.678.031A5.076,5.076,0,0,1,7676.431,1165.168Z" transform="translate(-7670.753 -1154.569)" fill="#3a5afd"/><path d="M7760.859,1165.163c-1.746-.154-3.562.526-5.24-.44C7757.4,1164.437,7759.227,1163.654,7760.859,1165.163Z" transform="translate(-7670.753 -1154.569)" fill="#fff"/><path d="M7763.2,1172.225c.4.625.775,1.248-.187,1.727Q7763.1,1173.088,7763.2,1172.225Z" transform="translate(-7670.753 -1154.569)" fill="#fff"/><path d="M7686.644,1187.428a1.729,1.729,0,0,1,1.441-.3c.166.007.493-.021.34.288-.069.139-.372.162-.569.238Z" transform="translate(-7670.753 -1154.569)" fill="#fff"/><path d="M7744.108,1187.648l-.564-.276c.076-.083.15-.236.227-.237.6-.008,1.2.014,1.8.026C7745.21,1187.7,7744.65,1187.645,7744.108,1187.648Z" transform="translate(-7670.753 -1154.569)" fill="#fff"/><path d="M7768.272,1174.143q-.012,1.562-.024,3.123c-.993-.968-.4-2.116-.354-3.2a.287.287,0,0,1,.19-.039A.652.652,0,0,1,7768.272,1174.143Z" transform="translate(-7670.753 -1154.569)" fill="#fff"/><path d="M7798.513,1173.595c-.352-4.939-3.634-8.521-8.878-9.688-.85.672-1.843.233-2.764.357-3.93,0-7.859.014-11.788-.008-.742,0-1.559.251-2.188-.408-4.836.3-8.188,3.194-9.7,8.377.024.585.487,1.217-.187,1.727-1.466,6.071,2.605,12.586,8.642,13.61a64.477,64.477,0,0,0,16.442.259c6.348-.558,10.1-4.507,10.436-10.036A4.259,4.259,0,0,1,7798.513,1173.595Zm-5.232,3.7c0,.027-.13.075-.193.066a.612.612,0,0,1-.2-.112,7.1,7.1,0,0,1-5.082,5.188,91.423,91.423,0,0,1-14.463,0c-2.94-.5-4.214-2.643-5.094-5.171a3.974,3.974,0,0,1,.024-3.124,7.054,7.054,0,0,1,5.632-5.152h0c-.177-.213-.136-.5.1-.5,4.377-.023,8.755-.018,13.133-.013.055,0,.157.075.158.115a2.425,2.425,0,0,1-.056.4,7.056,7.056,0,0,1,5.6,5.082h0C7793.834,1175.029,7793.314,1176.2,7793.281,1177.3Z" transform="translate(-7670.753 -1154.569)" fill="#fff"/></svg>