<svg xmlns="http://www.w3.org/2000/svg" xmlns:xlink="http://www.w3.org/1999/xlink" width="161.923" height="318.386" viewBox="0 0 161.923 318.386"><defs><linearGradient id="a" x1="-1.043" y1="0.908" x2="2.043" y2="0.092" gradientUnits="objectBoundingBox"><stop offset="0" stop-color="#ff85ff"/><stop offset="0.242" stop-color="#d75bff"/><stop offset="1" stop-color="#006eff"/></linearGradient><linearGradient id="b" x1="-7.013" y1="0.881" x2="8.013" y2="0.119" xlink:href="#a"/><linearGradient id="c" x1="-1.287" y1="0.903" x2="2.287" y2="0.097" xlink:href="#a"/><linearGradient id="d" x1="-5.2" y1="0.883" x2="6.2" y2="0.117" xlink:href="#a"/><linearGradient id="e" x1="-11.788" y1="0.879" x2="12.788" y2="0.121" xlink:href="#a"/><linearGradient id="f" x1="-2.889" y1="0.889" x2="3.889" y2="0.111" xlink:href="#a"/><linearGradient id="h" x1="-6.163" y1="0.882" x2="7.163" y2="0.118" xlink:href="#a"/></defs><g transform="translate(-137.469 -2231.871)" opacity="0.4"><rect width="12.365" height="80.961" transform="translate(154.749 2231.871)" fill="url(#a)"/><rect width="9.33" height="318.386" transform="translate(225.754 2231.871)" fill="url(#b)"/><rect width="10.544" height="80.961" transform="translate(179.024 2231.871)" fill="url(#c)"/><rect width="12.365" height="318.386" transform="translate(201.479 2231.871)" fill="url(#d)"/><rect width="5.667" height="318.386" transform="translate(293.725 2231.871)" fill="url(#e)"/><rect width="5.37" height="80.961" transform="translate(137.469 2231.871)" fill="url(#f)"/><rect width="12.365" height="318.386" transform="translate(246.995 2231.871)" fill="url(#d)"/><rect width="10.544" height="318.386" transform="translate(271.27 2231.871)" fill="url(#h)"/></g></svg>