<svg xmlns="http://www.w3.org/2000/svg" xmlns:xlink="http://www.w3.org/1999/xlink" width="1718.542" height="562.462" viewBox="0 0 1718.542 562.462"><defs><clipPath id="a"><rect width="242.965" height="170.183" transform="translate(98.319 5152.289)" fill="none"/></clipPath><clipPath id="b"><rect width="239.754" height="321.1" transform="translate(346.289 5077.365)" fill="none"/></clipPath><clipPath id="c"><rect width="239.754" height="281.497" transform="translate(590.672 5164.063)" fill="none"/></clipPath><clipPath id="d"><rect width="241.242" height="513.226" transform="translate(834.789 5010.428)" fill="none"/></clipPath><clipPath id="e"><rect width="242.688" height="520.098" transform="translate(1080.648 4961.192)" fill="none"/></clipPath><clipPath id="f"><rect width="241.242" height="232.923" transform="translate(1327.953 5228.729)" fill="none"/></clipPath><clipPath id="g"><rect width="243.05" height="239.071" transform="translate(1573.811 5069.504)" fill="none"/></clipPath></defs><g transform="translate(-98.319 -490.692)"><g transform="translate(0 -4470.5)"><g clip-path="url(#a)"><rect width="1610" height="1076.537" transform="translate(-41 4827.5)" fill="none"/></g></g><g transform="translate(0 -4470.5)"><g clip-path="url(#b)"><rect width="1610" height="1076.537" transform="translate(-41 4827.5)" fill="none"/></g></g><g transform="translate(0 -4470.5)"><g clip-path="url(#c)"><rect width="1610" height="1076.537" transform="translate(-41 4827.5)" fill="none"/></g></g><g transform="translate(0 -4470.5)"><g clip-path="url(#d)"><rect width="1610" height="1076.537" transform="translate(-41 4939.5)" fill="none"/></g></g><g transform="translate(0 -4470.5)"><g clip-path="url(#e)"><rect width="1610" height="1076.537" transform="translate(-41 4846.5)" fill="none"/></g></g><g transform="translate(0 -4470.5)"><g clip-path="url(#f)"><rect width="1610" height="1076.537" transform="translate(-41 4843.5)" fill="none"/></g></g><g transform="translate(0 -4470.5)"><g clip-path="url(#g)"><rect width="1610" height="1076.537" transform="translate(1487 4816.5)" fill="none"/></g></g></g></svg>